<svg width="449" height="158" viewBox="0 0 449 158" fill="none" xmlns="http://www.w3.org/2000/svg">
<path d="M112.048 52.688V53.968C111.237 54.1387 110.341 54.6293 109.36 55.44C108.379 56.208 107.589 57.5733 106.992 59.536L94.896 98.32C94.8107 98.32 94.7253 98.32 94.64 98.32C94.5547 98.32 94.4693 98.32 94.384 98.32C94.2987 98.32 94.2133 98.32 94.128 98.32C94.0427 98.32 93.9573 98.32 93.872 98.32L80.304 58.064C79.7493 56.4 79.1307 55.312 78.448 54.8C77.7653 54.288 77.1253 54.0107 76.528 53.968V52.688C77.296 52.7307 78.256 52.7733 79.408 52.816C80.56 52.8587 81.6693 52.88 82.736 52.88C84.4 52.88 85.9573 52.8587 87.408 52.816C88.8587 52.7733 90.032 52.7307 90.928 52.688V53.968C89.648 54.0107 88.624 54.1387 87.856 54.352C87.1307 54.5653 86.704 55.0347 86.576 55.76C86.4907 56.4853 86.704 57.68 87.216 59.344L96.752 88.848L95.856 89.616L104.304 63.056C105.072 60.7093 105.413 58.896 105.328 57.616C105.285 56.2933 104.816 55.376 103.92 54.864C103.024 54.3093 101.68 54.0107 99.888 53.968V52.688C101.125 52.7307 102.384 52.7733 103.664 52.816C104.944 52.8587 106.139 52.88 107.248 52.88C108.357 52.88 109.275 52.8587 110 52.816C110.725 52.7733 111.408 52.7307 112.048 52.688ZM67.312 52.688V53.968C66.2027 54.0533 65.392 54.2667 64.88 54.608C64.4107 54.9493 64.176 55.504 64.176 56.272C64.2187 56.9973 64.4533 58.0213 64.88 59.344L74.8 89.616L73.2 91.216L82.16 62.608L83.12 64.144L72.56 98.32C72.4747 98.32 72.3893 98.32 72.304 98.32C72.2187 98.32 72.1333 98.32 72.048 98.32C71.9627 98.32 71.8773 98.32 71.792 98.32C71.7067 98.32 71.6213 98.32 71.536 98.32L57.968 58.064C57.4133 56.4 56.7093 55.312 55.856 54.8C55.0027 54.288 54.2347 54.0107 53.552 53.968V52.688C54.4053 52.7307 55.4507 52.7733 56.688 52.816C57.968 52.8587 59.2053 52.88 60.4 52.88C61.808 52.88 63.1093 52.8587 64.304 52.816C65.5413 52.7733 66.544 52.7307 67.312 52.688ZM119.527 49.04C120.636 49.04 121.596 49.4453 122.407 50.256C123.218 51.0667 123.623 52.0267 123.623 53.136C123.623 54.2453 123.218 55.2053 122.407 56.016C121.596 56.8267 120.636 57.232 119.527 57.232C118.418 57.232 117.458 56.8267 116.647 56.016C115.836 55.2053 115.431 54.2453 115.431 53.136C115.431 52.0267 115.836 51.0667 116.647 50.256C117.458 49.4453 118.418 49.04 119.527 49.04ZM122.855 64.336V92.048C122.855 93.84 123.218 95.056 123.943 95.696C124.711 96.336 125.97 96.656 127.719 96.656V98C126.994 97.9573 125.884 97.9147 124.391 97.872C122.94 97.7867 121.468 97.744 119.975 97.744C118.524 97.744 117.052 97.7867 115.559 97.872C114.066 97.9147 112.956 97.9573 112.231 98V96.656C113.98 96.656 115.218 96.336 115.943 95.696C116.711 95.056 117.095 93.84 117.095 92.048V72.016C117.095 70.096 116.754 68.688 116.071 67.792C115.388 66.8533 114.108 66.384 112.231 66.384V65.04C113.596 65.168 114.919 65.232 116.199 65.232C117.436 65.232 118.61 65.168 119.719 65.04C120.871 64.8693 121.916 64.6347 122.855 64.336ZM142.437 64.144C144.144 64.144 145.594 64.4213 146.789 64.976C147.984 65.5307 148.858 66.0427 149.413 66.512C150.821 67.664 151.674 66.896 151.973 64.208H153.445C153.36 65.4027 153.296 66.832 153.253 68.496C153.21 70.1173 153.189 72.3147 153.189 75.088H151.717C151.461 73.5093 151.013 71.9733 150.373 70.48C149.776 68.9867 148.88 67.7707 147.685 66.832C146.49 65.8507 144.933 65.36 143.013 65.36C141.52 65.36 140.261 65.7867 139.237 66.64C138.256 67.4507 137.765 68.6667 137.765 70.288C137.765 71.568 138.149 72.6773 138.917 73.616C139.685 74.512 140.688 75.3653 141.925 76.176C143.162 76.944 144.506 77.7973 145.957 78.736C147.578 79.76 149.05 80.8053 150.373 81.872C151.696 82.9387 152.741 84.112 153.509 85.392C154.32 86.672 154.725 88.1867 154.725 89.936C154.725 91.8987 154.213 93.5413 153.189 94.864C152.165 96.1867 150.821 97.1893 149.157 97.872C147.536 98.5547 145.744 98.896 143.781 98.896C142.842 98.896 141.946 98.8107 141.093 98.64C140.282 98.512 139.493 98.2987 138.725 98C138.298 97.7867 137.85 97.5307 137.381 97.232C136.954 96.9333 136.528 96.6133 136.101 96.272C135.674 95.9307 135.29 95.952 134.949 96.336C134.608 96.6773 134.352 97.3813 134.181 98.448H132.709C132.794 97.0827 132.858 95.4187 132.901 93.456C132.944 91.4933 132.965 88.8907 132.965 85.648H134.437C134.736 88.0373 135.162 90.128 135.717 91.92C136.272 93.712 137.146 95.12 138.341 96.144C139.536 97.1253 141.2 97.616 143.333 97.616C144.186 97.616 145.04 97.424 145.893 97.04C146.789 96.656 147.536 96.016 148.133 95.12C148.73 94.224 149.029 93.0293 149.029 91.536C149.029 89.6587 148.346 88.1227 146.981 86.928C145.616 85.7333 143.888 84.4747 141.797 83.152C140.261 82.1707 138.81 81.1893 137.445 80.208C136.122 79.2267 135.034 78.1173 134.181 76.88C133.37 75.6427 132.965 74.1493 132.965 72.4C132.965 70.48 133.392 68.9227 134.245 67.728C135.141 66.4907 136.314 65.5947 137.765 65.04C139.216 64.4427 140.773 64.144 142.437 64.144ZM188.726 47.824V91.024C188.726 92.944 189.067 94.3733 189.75 95.312C190.475 96.208 191.755 96.656 193.59 96.656V98C192.267 97.872 190.945 97.808 189.622 97.808C188.385 97.808 187.19 97.872 186.038 98C184.929 98.128 183.905 98.3627 182.966 98.704V55.504C182.966 53.584 182.625 52.176 181.942 51.28C181.259 50.3413 179.979 49.872 178.102 49.872V48.528C179.467 48.656 180.79 48.72 182.07 48.72C183.307 48.72 184.481 48.656 185.59 48.528C186.742 48.3573 187.787 48.1227 188.726 47.824ZM175.286 64.144C177.163 64.144 178.913 64.592 180.534 65.488C182.198 66.384 183.307 67.92 183.862 70.096L183.03 70.736C182.433 68.944 181.494 67.6427 180.214 66.832C178.977 66.0213 177.505 65.616 175.798 65.616C173.281 65.616 171.169 66.9173 169.462 69.52C167.798 72.1227 166.987 76.1333 167.03 81.552C167.03 85.008 167.35 87.888 167.99 90.192C168.673 92.4533 169.654 94.16 170.934 95.312C172.257 96.4213 173.857 96.976 175.734 96.976C177.526 96.976 179.147 96.208 180.598 94.672C182.049 93.136 182.923 90.8747 183.222 87.888L183.99 88.784C183.649 92.0267 182.603 94.5227 180.854 96.272C179.147 98.0213 176.822 98.896 173.878 98.896C171.233 98.896 168.907 98.256 166.902 96.976C164.939 95.696 163.425 93.776 162.358 91.216C161.334 88.656 160.822 85.4347 160.822 81.552C160.822 77.6693 161.483 74.448 162.806 71.888C164.171 69.2853 165.942 67.344 168.118 66.064C170.337 64.784 172.726 64.144 175.286 64.144ZM212.474 64.144C215.204 64.144 217.658 64.7413 219.834 65.936C222.01 67.1307 223.738 69.008 225.018 71.568C226.34 74.128 227.002 77.456 227.002 81.552C227.002 85.648 226.34 88.976 225.018 91.536C223.738 94.0533 222.01 95.9093 219.834 97.104C217.658 98.2987 215.204 98.896 212.474 98.896C209.786 98.896 207.332 98.2987 205.114 97.104C202.938 95.9093 201.188 94.0533 199.866 91.536C198.586 88.976 197.946 85.648 197.946 81.552C197.946 77.456 198.586 74.128 199.866 71.568C201.188 69.008 202.938 67.1307 205.114 65.936C207.332 64.7413 209.786 64.144 212.474 64.144ZM212.474 65.424C210.042 65.424 208.036 66.6827 206.458 69.2C204.922 71.7173 204.154 75.8347 204.154 81.552C204.154 87.2693 204.922 91.3867 206.458 93.904C208.036 96.3787 210.042 97.616 212.474 97.616C214.906 97.616 216.89 96.3787 218.426 93.904C220.004 91.3867 220.794 87.2693 220.794 81.552C220.794 75.8347 220.004 71.7173 218.426 69.2C216.89 66.6827 214.906 65.424 212.474 65.424ZM252.976 64.144C254.469 64.144 255.771 64.3573 256.88 64.784C257.989 65.2107 258.907 65.808 259.632 66.576C260.443 67.4293 260.997 68.5387 261.296 69.904C261.595 71.2693 261.744 72.9547 261.744 74.96V92.048C261.744 93.84 262.107 95.056 262.832 95.696C263.6 96.336 264.859 96.656 266.608 96.656V98C265.883 97.9573 264.773 97.9147 263.28 97.872C261.787 97.7867 260.336 97.744 258.928 97.744C257.52 97.744 256.133 97.7867 254.768 97.872C253.445 97.9147 252.443 97.9573 251.76 98V96.656C253.296 96.656 254.384 96.336 255.024 95.696C255.664 95.056 255.984 93.84 255.984 92.048V73.552C255.984 72.2293 255.899 71.0133 255.728 69.904C255.557 68.7947 255.131 67.8987 254.448 67.216C253.765 66.5333 252.656 66.192 251.12 66.192C249.456 66.192 247.963 66.704 246.64 67.728C245.36 68.752 244.336 70.16 243.568 71.952C242.843 73.7013 242.48 75.664 242.48 77.84V92.048C242.48 93.84 242.8 95.056 243.44 95.696C244.08 96.336 245.168 96.656 246.704 96.656V98C246.021 97.9573 244.997 97.9147 243.632 97.872C242.309 97.7867 240.944 97.744 239.536 97.744C238.128 97.744 236.677 97.7867 235.184 97.872C233.691 97.9147 232.581 97.9573 231.856 98V96.656C233.605 96.656 234.843 96.336 235.568 95.696C236.336 95.056 236.72 93.84 236.72 92.048V72.016C236.72 70.096 236.379 68.688 235.696 67.792C235.013 66.8533 233.733 66.384 231.856 66.384V65.04C233.221 65.168 234.544 65.232 235.824 65.232C237.061 65.232 238.235 65.168 239.344 65.04C240.496 64.8693 241.541 64.6347 242.48 64.336V71.888C243.589 69.1147 245.104 67.1307 247.024 65.936C248.944 64.7413 250.928 64.144 252.976 64.144ZM272.24 64.144C273.733 64.144 275.035 64.3573 276.144 64.784C277.253 65.2107 278.171 65.808 278.896 66.576C279.707 67.4293 280.261 68.5387 280.56 69.904C280.859 71.2693 281.008 72.9547 281.008 74.96V92.048C281.008 93.84 281.371 95.056 282.096 95.696C282.864 96.336 284.123 96.656 285.872 96.656V98C285.147 97.9573 284.037 97.9147 282.544 97.872C281.051 97.7867 279.6 97.744 278.192 97.744C276.784 97.744 275.397 97.7867 274.032 97.872C272.709 97.9147 271.707 97.9573 271.024 98V96.656C272.56 96.656 273.648 96.336 274.288 95.696C274.928 95.056 275.248 93.84 275.248 92.048V73.552C275.248 72.2293 275.163 71.0133 274.992 69.904C274.821 68.7947 274.395 67.8987 273.712 67.216C273.029 66.5333 271.92 66.192 270.384 66.192C268.72 66.192 267.227 66.704 265.904 67.728C264.624 68.752 263.6 70.1387 262.832 71.888C262.107 73.6373 261.744 75.6 261.744 77.776L261.552 71.824C262.704 68.88 264.261 66.8747 266.224 65.808C268.187 64.6987 270.192 64.144 272.24 64.144ZM297.757 98.448C296.007 98.448 294.493 98.128 293.213 97.488C291.933 96.8053 290.951 95.8667 290.269 94.672C289.629 93.4773 289.309 92.0907 289.309 90.512C289.309 88.6347 289.735 87.0987 290.589 85.904C291.485 84.7093 292.615 83.7493 293.981 83.024C295.346 82.2987 296.775 81.7013 298.269 81.232C299.805 80.72 301.255 80.2507 302.621 79.824C303.986 79.3547 305.095 78.8213 305.949 78.224C306.845 77.6267 307.293 76.8373 307.293 75.856V71.888C307.293 70.096 307.015 68.7307 306.461 67.792C305.949 66.8533 305.245 66.2347 304.349 65.936C303.453 65.5947 302.45 65.424 301.341 65.424C300.274 65.424 299.122 65.5733 297.885 65.872C296.69 66.1707 295.73 66.7893 295.005 67.728C295.815 67.8987 296.519 68.3253 297.117 69.008C297.714 69.6907 298.013 70.5653 298.013 71.632C298.013 72.6987 297.671 73.552 296.989 74.192C296.306 74.7893 295.431 75.088 294.365 75.088C293.127 75.088 292.21 74.704 291.613 73.936C291.058 73.1253 290.781 72.2293 290.781 71.248C290.781 70.1387 291.058 69.2427 291.613 68.56C292.167 67.8773 292.871 67.2373 293.725 66.64C294.706 65.9573 295.965 65.3813 297.501 64.912C299.079 64.4 300.85 64.144 302.812 64.144C304.562 64.144 306.055 64.3573 307.293 64.784C308.53 65.168 309.554 65.744 310.365 66.512C311.474 67.536 312.199 68.7947 312.541 70.288C312.882 71.7387 313.053 73.488 313.053 75.536V93.328C313.053 94.3947 313.202 95.1627 313.501 95.632C313.842 96.1013 314.354 96.336 315.037 96.336C315.506 96.336 315.954 96.2293 316.381 96.016C316.807 95.8027 317.319 95.4613 317.917 94.992L318.621 96.08C317.725 96.7627 316.871 97.3387 316.061 97.808C315.25 98.2347 314.162 98.448 312.797 98.448C311.559 98.448 310.535 98.2347 309.725 97.808C308.914 97.3813 308.295 96.7627 307.869 95.952C307.485 95.0987 307.293 94.032 307.293 92.752C306.141 94.672 304.754 96.1013 303.133 97.04C301.554 97.9787 299.762 98.448 297.757 98.448ZM300.061 95.888C301.469 95.888 302.77 95.4827 303.965 94.672C305.202 93.8613 306.311 92.6453 307.293 91.024V78.48C306.781 79.2053 306.034 79.824 305.053 80.336C304.071 80.8053 303.005 81.296 301.853 81.808C300.701 82.2773 299.591 82.8533 298.525 83.536C297.501 84.176 296.647 85.0293 295.965 86.096C295.282 87.1627 294.941 88.5493 294.941 90.256C294.941 91.9627 295.389 93.328 296.285 94.352C297.223 95.376 298.482 95.888 300.061 95.888ZM340.448 64.144C341.6 64.144 342.602 64.3787 343.456 64.848C344.352 65.3173 345.034 65.936 345.504 66.704C346.016 67.4293 346.272 68.2613 346.272 69.2C346.272 70.2667 345.93 71.2053 345.248 72.016C344.608 72.8267 343.733 73.232 342.624 73.232C341.728 73.232 340.938 72.9547 340.256 72.4C339.573 71.8027 339.232 70.9707 339.232 69.904C339.232 69.0933 339.445 68.4107 339.872 67.856C340.341 67.2587 340.853 66.7893 341.408 66.448C341.109 66.0213 340.661 65.808 340.064 65.808C338.741 65.808 337.525 66.2133 336.416 67.024C335.306 67.792 334.368 68.7947 333.6 70.032C332.832 71.2693 332.234 72.592 331.808 74C331.381 75.3653 331.168 76.6453 331.168 77.84V91.408C331.168 93.4987 331.765 94.9067 332.96 95.632C334.197 96.3147 335.861 96.656 337.952 96.656V98C336.97 97.9573 335.584 97.9147 333.792 97.872C332 97.7867 330.101 97.744 328.095 97.744C326.645 97.744 325.194 97.7867 323.744 97.872C322.336 97.9147 321.269 97.9573 320.544 98V96.656C322.293 96.656 323.53 96.336 324.256 95.696C325.024 95.056 325.408 93.84 325.408 92.048V72.016C325.408 70.096 325.066 68.688 324.384 67.792C323.701 66.8533 322.421 66.384 320.544 66.384V65.04C321.909 65.168 323.232 65.232 324.512 65.232C325.749 65.232 326.922 65.168 328.032 65.04C329.184 64.8693 330.229 64.6347 331.168 64.336V72.336C331.637 71.0987 332.298 69.8613 333.152 68.624C334.048 67.344 335.114 66.2773 336.352 65.424C337.589 64.5707 338.954 64.144 340.448 64.144ZM357.842 47.824V92.048C357.842 93.84 358.162 95.056 358.802 95.696C359.442 96.336 360.53 96.656 362.066 96.656V98C361.383 97.9573 360.359 97.9147 358.994 97.872C357.671 97.7867 356.327 97.744 354.962 97.744C353.511 97.744 352.039 97.7867 350.546 97.872C349.052 97.9147 347.943 97.9573 347.218 98V96.656C348.967 96.656 350.204 96.336 350.93 95.696C351.698 95.056 352.082 93.84 352.082 92.048V55.504C352.082 53.584 351.74 52.176 351.058 51.28C350.375 50.3413 349.095 49.872 347.218 49.872V48.528C348.583 48.656 349.906 48.72 351.186 48.72C352.423 48.72 353.596 48.656 354.706 48.528C355.858 48.3573 356.903 48.1227 357.842 47.824ZM378.194 65.04V66.32C377.127 66.4053 376.124 66.704 375.186 67.216C374.247 67.6853 373.33 68.3893 372.434 69.328L363.41 78.8L364.306 77.008L376.21 93.328C376.935 94.3093 377.618 95.0773 378.257 95.632C378.94 96.1867 379.751 96.528 380.69 96.656V98C380.22 97.9573 379.474 97.9147 378.45 97.872C377.468 97.7867 376.487 97.744 375.506 97.744C374.183 97.744 372.839 97.7867 371.474 97.872C370.108 97.9147 369.084 97.9573 368.402 98V96.656C369.255 96.656 369.852 96.4427 370.194 96.016C370.535 95.5893 370.471 95.0773 370.002 94.48L362.642 83.728C361.831 82.576 361.084 81.8293 360.402 81.488C359.762 81.1467 358.823 80.9547 357.586 80.912V79.632C358.951 79.4613 360.06 79.184 360.914 78.8C361.767 78.3733 362.578 77.7547 363.346 76.944L368.082 72.016C369.447 70.608 370.13 69.4987 370.13 68.688C370.13 67.8347 369.682 67.2373 368.786 66.896C367.932 66.512 366.802 66.32 365.394 66.32V65.04C366.503 65.0827 367.74 65.1467 369.106 65.232C370.514 65.2747 371.687 65.296 372.626 65.296C373.351 65.296 374.055 65.296 374.738 65.296C375.42 65.2533 376.06 65.2107 376.658 65.168C377.255 65.1253 377.767 65.0827 378.194 65.04Z" fill="black"/>
<path d="M382.634 119C216.356 123.847 -2.51531 190.691 26.6339 40" stroke="black" stroke-width="2"/>
<path d="M383 54V27H423C413.665 48.2678 415.01 53.8903 383 54Z" fill="black" stroke="black" stroke-width="2"/>
</svg>
